<svg xmlns="http://www.w3.org/2000/svg" width="478.75" height="101.25"><defs><clipPath><path d="m0 0h2429v810h-2429v-810z"/></clipPath></defs><g transform="matrix(.125 0 0 -.125 0 101.25)" fill-rule="evenodd"><path d="m234.449 687.535c47.703 0 86.5-38.793 86.5-86.496 0-47.656-38.797-86.461-86.5-86.461-47.656 0-86.5 38.805-86.5 86.461 0 47.703 38.844 86.496 86.5 86.496zm0-295.351c115.235 0 208.91 93.683 208.91 208.855 0 115.219-93.675 208.934-208.91 208.934-115.211 0-208.91-93.715-208.91-208.934 0-115.172 93.699-208.855 208.91-208.855z" fill="#e27e35"/><path d="m318.969 221.766c42.531 9.691 83.547 26.511 121.316 50.242 28.586 18.019 37.203 55.82 19.188 84.41-17.993 28.637-55.762 37.262-84.399 19.242-85.57-53.812-195.754-53.789-281.273 0-28.641 18.02-66.406 9.395-84.379-19.242-18.016-28.613-9.422-66.391 19.168-84.41 37.766-23.707 78.781-40.551 121.312-50.242l-116.796-116.797c-23.879-23.903-23.879-62.649.023-86.551 11.965-11.938 27.613-17.918 43.262-17.918 15.676 0 31.347 5.98 43.312 17.918l114.719 114.773 114.82-114.773c23.879-23.898 62.621-23.898 86.524 0 23.925 23.902 23.925 62.672 0 86.551l-116.797 116.797" fill="#e27e35"/><path d="m1832.5 411.055c10.61 5.648 30.25 23.34 36.89 46.39 6.63 23.043 15.79 61.301 15.79 61.301.3.953.12 2.004-.47 2.785-.56.805-1.46 1.293-2.44 1.293h-40.91c-1.32 0-2.52-.902-2.91-2.215 0 0-10.22-47.957-15.3-60.847-5.09-12.891-17.95-24.559-25.49-29.2-3.81-2.343-7.77-3.8-12.06-4.441-4.35-.66-8.91-.973-13.53-.973h-39.87v94.551c0 1.711-1.36 3.125-3.05 3.125h-40.89c-1.69 0-3.06-1.414-3.06-3.125v-254.234c0-1.731 1.37-3.125 3.06-3.125h40.89c1.69 0 3.05 1.394 3.05 3.125v119.078h45.31c7.63 0 51.64-5.566 55.55-37.207 3.9-31.641 8.88-82.727 8.88-82.727.37-1.339 1.58-2.269 2.94-2.269h41.88c.97 0 1.86.465 2.45 1.269.59.782.75 1.809.47 2.758 0 0-7.64 55.992-13.89 95.055-6.25 39.062-44.05 49.953-43.29 49.633zm308.07 111.769h-165.83c-1.69 0-3.04-1.414-3.04-3.125 0 0 .79-117.722-8.54-167.722-3.73-20.016-5.61-22.825-9.72-29.786-4-6.785-9.18-11.82-15.45-14.945-6.97-3.476-14.81-6.891-23.39-10.141-1.54-.585-2.35-2.293-1.85-3.878l10.94-35.379c.41-1.317 1.6-2.172 2.9-2.172.17 0 .36.023.53.051 13.24 2.441 25.2 6.445 35.53 11.816 10.54 5.492 19.58 13.84 26.85 24.875 7.11 10.793 12.73 25.23 16.62 42.832 3.89 17.508 6.61 41.047 8.17 66.047 1.56 25 3.41 78.387 3.41 78.387h77.95v-214.219c0-1.731 1.37-3.125 3.05-3.125h41.87c1.69 0 3.03 1.394 3.03 3.125v254.234c0 1.711-1.34 3.125-3.03 3.125zm444.91-192.207c-.57.653-1.39 1.02-2.25 1.02-1.16.226-1.67-.391-2.24-1.02-5.76-6.566-13.14-12.48-21.95-17.555-8.73-5.035-18.22-7.574-28.23-7.574-22.26 0-39.67 7.16-51.79 21.274-12.22 14.16-18.42 36.125-18.42 65.324 0 29.523 6.2 51.594 18.42 65.578 12.09 13.945 29.53 20.996 51.79 20.996 9.2 0 18.31-2.246 27.13-6.637 8.88-4.375 16.62-10.406 23.02-17.918.55-.683 1.68-1.128 2.27-1.082.88 0 1.71.368 2.29 1.051l26.42 30.762c1.07 1.25 1 3.148-.18 4.32-10.86 10.774-23.19 19.606-36.71 26.203-13.7 6.664-29.25 10.055-46.16 10.055-14.58 0-28.94-2.492-42.66-7.352-13.84-4.929-26.29-12.839-37.03-23.535-10.75-10.687-19.46-24.582-25.91-41.308-6.44-16.699-9.72-37.278-9.72-61.133 0-23.535 3.28-43.914 9.72-60.59 6.45-16.773 15.16-30.703 25.91-41.371 10.74-10.719 23.19-18.629 37.03-23.512 13.72-4.883 28.08-7.347 42.66-7.347 17.3 0 33 3.367 46.67 10.031 13.53 6.617 25.88 15.625 36.74 26.758 1.15 1.175 1.2 3.078.1 4.324l-26.92 30.238zm-252.21 17.403c0-8.961-1.68-16.254-5-21.676-3.37-5.516-7.91-10.008-13.45-13.328-5.64-3.395-12.18-5.77-19.41-7.032-7.65-1.367-15.14-2.019-22.9-2.019-17.51 0-30.55 3.406-38.8 10.07-8.07 6.617-12.01 21.461-12.01 32.543 0 10.988 3.81 25.465 11.68 31.379 8.07 6.074 19.89 9.148 35.12 9.148h64.77v-39.085zm47.03 92.261c0 16.43-2.81 30.371-8.32 41.383-5.5 11.008-13.12 19.871-22.64 26.266-9.33 6.347-20.39 10.89-32.89 13.578-12.3 2.59-25.31 3.906-38.61 3.906-17.16 0-33.43-2.906-48.38-8.644-15.06-5.86-27.51-14.528-37.05-25.758-1.02-1.219-.98-3.028.09-4.2l25.94-28.171c.57-.661 1.36-.95 2.29-.977.86.027 1.66.414 2.22 1.098 5.37 6.445 12.37 11.57 20.82 15.258 8.58 3.761 20.58 5.664 35.72 5.664 19.17 0 33.16-3.243 41.56-9.637 8.22-6.25 12.22-15.656 12.22-28.762v-13.09h-74.72c-13.67 0-25.74-2.148-35.8-6.371-10.18-4.222-18.75-9.988-25.51-17.117-6.74-7.121-11.92-15.496-15.35-24.902-3.45-9.293-5.2-25.485-5.2-35.789 0-22.723 7.97-47.934 23.67-62.657 15.63-14.671 38.24-22.093 67.14-22.093 17.26 0 32.24 2.488 44.49 7.371 9.01 3.59 16.13 8.035 21.28 13.234l5.21-14.406c0-1.731 1.37-3.125 3.04-3.125h40.96c1.64 0 3.02 1.394 3.02 3.125 0 0-5.2 17.14-5.2 40.683v134.133zm1438.35 82.543h-34.53c-.97 0-1.89-.488-2.46-1.316l-92.11-133.297-31.45-47.172v178.66c0 1.711-1.36 3.125-3.03 3.125h-40.91c-1.66 0-3.02-1.414-3.02-3.125v-254.234c0-1.731 1.36-3.125 3.02-3.125h39.38c1 0 1.94.488 2.51 1.344l117.68 174.714v-172.933c0-1.731 1.37-3.125 3.06-3.125h41.86c1.69 0 3.05 1.394 3.05 3.125v254.234c0 1.711-1.36 3.125-3.05 3.125zm-760.59 0h-40.9c-1.68 0-3.05-1.414-3.05-3.125v-93.531h-108.63v93.531c0 1.711-1.36 3.125-3.04 3.125h-40.92c-1.68 0-3.04-1.414-3.04-3.125v-254.234c0-1.731 1.36-3.125 3.04-3.125h40.92c1.68 0 3.04 1.394 3.04 3.125v120.621h108.63v-120.621c0-1.731 1.37-3.125 3.05-3.125h40.9c1.68 0 3.05 1.394 3.05 3.125v254.234c0 1.711-1.37 3.125-3.05 3.125zm-257.65-192.207c-.56.653-1.39 1.02-2.22 1.02-.55.148-1.7-.391-2.26-1.051-5.59-6.438-12.97-12.32-21.93-17.524-8.69-5.035-18.19-7.574-28.2-7.574-22.21 0-39.68 7.16-51.82 21.274-12.24 14.226-18.44 36.199-18.44 65.324 0 29.445 6.2 51.516 18.44 65.578 12.14 13.914 29.58 20.996 51.82 20.996 9.18 0 18.29-2.246 27.13-6.637 8.86-4.351 16.57-10.375 22.95-17.918.58-.683 1.41-1.082 2.3-1.082h.01c.86 0 1.69.368 2.27 1.051l26.44 30.762c1.08 1.25 1.03 3.148-.14 4.32-10.87 10.774-23.2 19.586-36.72 26.203-13.74 6.664-29.3 10.055-46.19 10.055-14.6 0-28.94-2.492-42.67-7.352-13.83-4.929-26.28-12.839-37.02-23.535-10.77-10.687-19.48-24.582-25.87-41.308-6.48-16.766-9.75-37.348-9.75-61.133 0-23.457 3.27-43.848 9.75-60.59 6.39-16.773 15.1-30.703 25.87-41.371 10.74-10.719 23.22-18.629 37.02-23.512 13.73-4.883 28.07-7.347 42.67-7.347 17.31 0 33 3.367 46.65 10.031 13.57 6.617 25.93 15.625 36.77 26.758 1.17 1.199 1.19 3.101.09 4.324l-26.95 30.238zm719.59 80.438c10.61 5.648 30.25 23.34 36.89 46.39 6.63 23.043 15.79 61.301 15.79 61.301.3.953.12 2.004-.47 2.785-.56.805-1.48 1.293-2.44 1.293h-40.91c-1.35 0-2.52-.902-2.91-2.215 0 0-10.22-47.957-15.3-60.847-5.09-12.891-17.95-24.559-25.49-29.2-3.84-2.343-7.77-3.8-12.09-4.441-4.34-.66-8.88-.973-13.5-.973h-39.87v94.551c0 1.711-1.36 3.125-3.05 3.125h-40.89c-1.69 0-3.06-1.414-3.06-3.125v-254.234c0-1.731 1.37-3.125 3.06-3.125h40.89c1.69 0 3.05 1.394 3.05 3.125v119.078h45.31c7.63 0 51.64-5.566 55.55-37.207 3.9-31.641 8.88-82.727 8.88-82.727.37-1.339 1.56-2.269 2.94-2.269h41.88c.97 0 1.86.465 2.45 1.269.56.782.75 1.809.47 2.758 0 0-7.64 55.992-13.89 95.055-6.25 39.062-44.05 49.953-43.29 49.633zm-199.12 111.769h-34.53c-1 0-1.92-.488-2.49-1.316l-92.04-133.297-31.47-47.223v178.711c0 1.711-1.36 3.125-3.05 3.125h-40.89c-1.68 0-3.06-1.414-3.06-3.125v-254.234c0-1.731 1.38-3.125 3.06-3.125h39.4c1 0 1.93.488 2.49 1.344l117.65 174.691v-172.91c0-1.731 1.37-3.125 3.05-3.125h41.88c1.68 0 3.05 1.394 3.05 3.125v254.234c0 1.711-1.37 3.125-3.05 3.125zm-2494.196-162.453c0-31.316-25.95-56.723-57.957-56.723-32.008 0-57.961 25.407-57.961 56.723v63.039c0 31.324 25.953 56.715 57.961 56.715 32.007 0 57.957-25.391 57.957-56.715v-63.039zm-57.762 164.527c-57.813 0-104.688-45.945-104.688-102.609v-60.371c0-56.695 46.875-102.652 104.688-102.652 57.812 0 104.687 45.957 104.687 102.652v60.371c0 56.664-46.875 102.609-104.687 102.609zm314.308-218.867h-110.304c5.957 11.086 9.933 24.637 11.863 40.309 2.172 17.523 5.445 39.914 6.789 66.598l5.86 66.746h85.792v-173.653zm70.87 0h-22.9v213.668c0 1.711-1.37 3.125-3.05 3.125h-169.482c-1.613 0-2.957-1.316-3.027-2.976l-8.032-108.082c-1.027-16.383-3.543-30.368-4.519-41.969-1-11.422-2.563-21.34-4.637-29.438-2.125-8.082-4.98-14.629-8.742-20-3.66-5.152-8.031-10.867-14.672-13.992-6.641-3.133-24.34-4.5-24.34-4.5-1.465-.269-2.515-1.562-2.515-3.074v-102.516c0-1.734 1.367-3.125 3.05-3.125h40.918c1.684 0 3.051 1.391 3.051 3.125v66.063h174.977v-66.063c0-1.734 1.34-3.125 3.03-3.125h40.89c1.69 0 3.03 1.391 3.03 3.125v106.614c0 1.726-1.34 3.14-3.03 3.14zm239.85 216.793h-40.93c-1.68 0-3.04-1.414-3.04-3.125v-93.531h-108.62v93.531c0 1.711-1.37 3.125-3.06 3.125h-40.89c-1.68 0-3.05-1.414-3.05-3.125v-254.234c0-1.731 1.37-3.125 3.05-3.125h40.89c1.69 0 3.06 1.394 3.06 3.125v120.621h108.62v-120.621c0-1.731 1.36-3.125 3.04-3.125h40.93c1.65 0 3.03 1.394 3.03 3.125v254.234c0 1.711-1.38 3.125-3.03 3.125zm207.74-162.453c0-31.316-25.95-56.723-57.96-56.723-32 0-57.97 25.407-57.97 56.723v63.039c0 31.324 25.97 56.715 57.97 56.715 32.01 0 57.96-25.391 57.96-56.715v-63.039zm-57.76 164.527c-57.82 0-104.69-45.945-104.69-102.609v-60.371c0-56.695 46.87-102.652 104.69-102.652 57.81 0 104.68 45.957 104.68 102.652v60.371c0 56.664-46.87 102.609-104.68 102.609z" fill="#686565"/><g fill="#e27e35"><path d="m234.449 687.543c47.703 0 86.5-38.797 86.5-86.5 0-47.656-38.797-86.461-86.5-86.461-47.656 0-86.5 38.805-86.5 86.461 0 47.703 38.844 86.5 86.5 86.5zm0-295.348c115.235 0 208.91 93.676 208.91 208.848 0 115.223-93.675 208.934-208.91 208.934-115.211 0-208.91-93.711-208.91-208.934 0-115.172 93.699-208.848 208.91-208.848z"/><path d="m318.969 221.77c42.531 9.691 83.547 26.515 121.316 50.246 28.586 18.015 37.203 55.808 19.188 84.398-17.993 28.652-55.762 37.27-84.399 19.254-85.57-53.824-195.754-53.801-281.273 0-28.641 18.016-66.406 9.398-84.379-19.254-18.016-28.613-9.422-66.383 19.168-84.398 37.766-23.707 78.781-40.555 121.312-50.246l-116.796-116.797c-23.879-23.903-23.879-62.649.023-86.547 11.965-11.941 27.613-17.922 43.262-17.922 15.676 0 31.347 5.98 43.312 17.922l114.719 114.769 114.82-114.769c23.879-23.902 62.621-23.902 86.524 0 23.925 23.898 23.925 62.672 0 86.547l-116.797 116.797"/></g></g></svg>