<?xml version="1.0" encoding="utf-8"?>
<!-- Generator: Adobe Illustrator 16.0.0, SVG Export Plug-In . SVG Version: 6.00 Build 0)  -->
<!DOCTYPE svg PUBLIC "-//W3C//DTD SVG 1.0//EN" "http://www.w3.org/TR/2001/REC-SVG-20010904/DTD/svg10.dtd">
<svg version="1.0" id="Layer_1" xmlns="http://www.w3.org/2000/svg" xmlns:xlink="http://www.w3.org/1999/xlink" x="0px" y="0px"
	 width="307.957px" height="92.434px" viewBox="0 0 307.957 92.434" enable-background="new 0 0 307.957 92.434"
	 xml:space="preserve">
<g>
	<g>
		<g>
			<path fill="#F58426" d="M98.055,36.643c-4.625,0-8.375,3.676-8.375,8.209v4.83c0,4.535,3.75,8.212,8.375,8.212
				s8.375-3.677,8.375-8.212v-4.83C106.43,40.318,102.68,36.643,98.055,36.643z M102.676,49.805c0,2.506-2.076,4.538-4.637,4.538
				c-2.561,0-4.637-2.032-4.637-4.538v-5.043c0-2.506,2.076-4.537,4.637-4.537c2.561,0,4.637,2.031,4.637,4.537V49.805z
				 M145.787,36.809h-13.267c-0.135,0-0.243,0.113-0.243,0.25c0,0,0.062,9.418-0.684,13.418c-0.299,1.602-0.45,1.826-0.778,2.383
				c-0.319,0.543-0.734,0.945-1.236,1.195c-0.556,0.278-1.185,0.552-1.871,0.812c-0.122,0.047-0.187,0.184-0.147,0.311l0.875,2.83
				c0.033,0.105,0.127,0.174,0.232,0.174c0.014,0,0.028-0.002,0.043-0.004c1.059-0.195,2.014-0.516,2.841-0.945
				c0.844-0.439,1.566-1.107,2.148-1.99c0.57-0.863,1.018-2.019,1.331-3.427c0.31-1.4,0.526-3.283,0.651-5.283
				s0.274-6.271,0.274-6.271h6.237v17.138c0,0.139,0.108,0.25,0.243,0.25h3.35c0.134,0,0.243-0.111,0.243-0.25V37.059
				C146.03,36.922,145.921,36.809,145.787,36.809z M86.056,36.809h-3.273c-0.134,0-0.243,0.113-0.243,0.25v7.482h-8.69v-7.482
				c0-0.137-0.108-0.25-0.243-0.25h-3.272c-0.135,0-0.244,0.113-0.244,0.25v20.339c0,0.139,0.109,0.25,0.244,0.25h3.272
				c0.135,0,0.243-0.111,0.243-0.25v-9.649h8.69v9.649c0,0.139,0.109,0.25,0.243,0.25h3.273c0.134,0,0.243-0.111,0.243-0.25V37.059
				C86.299,36.922,86.19,36.809,86.056,36.809z M66.869,54.152h-1.832V37.059c0-0.137-0.109-0.25-0.243-0.25H51.235
				c-0.129,0-0.236,0.105-0.243,0.238l-0.643,8.646c-0.082,1.311-0.284,2.43-0.362,3.357c-0.08,0.914-0.205,1.707-0.371,2.355
				c-0.169,0.646-0.397,1.17-0.699,1.6c-0.293,0.412-0.643,0.869-1.174,1.119c-0.531,0.251-1.947,0.36-1.947,0.36
				c-0.116,0.021-0.2,0.125-0.2,0.246v8.201c0,0.139,0.109,0.25,0.243,0.25h3.274c0.134,0,0.243-0.111,0.243-0.25v-5.285h13.998
				v5.285c0,0.139,0.108,0.25,0.243,0.25h3.271c0.135,0,0.244-0.111,0.244-0.25v-8.529C67.112,54.266,67.003,54.152,66.869,54.152z
				 M61.2,54.152h-8.825c0.477-0.887,0.795-1.971,0.95-3.225c0.173-1.402,0.437-3.193,0.543-5.328l0.468-5.34H61.2V54.152z
				 M36.055,36.643c-4.625,0-8.375,3.676-8.375,8.209v4.83c0,4.535,3.75,8.212,8.375,8.212s8.375-3.677,8.375-8.212v-4.83
				C44.43,40.318,40.68,36.643,36.055,36.643z M40.676,49.805c0,2.506-2.076,4.538-4.637,4.538c-2.561,0-4.637-2.032-4.637-4.538
				v-5.043c0-2.506,2.076-4.537,4.637-4.537c2.561,0,4.637,2.031,4.637,4.537V49.805z M240.212,36.809h-2.763
				c-0.079,0-0.153,0.039-0.199,0.105l-7.363,10.664l-2.518,3.777V37.059c0-0.137-0.109-0.25-0.243-0.25h-3.272
				c-0.134,0-0.243,0.113-0.243,0.25v20.339c0,0.139,0.109,0.25,0.243,0.25h3.152c0.08,0,0.155-0.039,0.2-0.107l9.412-13.976v13.833
				c0,0.139,0.109,0.25,0.243,0.25h3.351c0.135,0,0.244-0.111,0.244-0.25V37.059C240.456,36.922,240.347,36.809,240.212,36.809z
				 M256.142,45.75c0.849-0.451,2.419-1.867,2.95-3.711s1.264-4.904,1.264-4.904c0.023-0.076,0.01-0.16-0.036-0.223
				c-0.046-0.064-0.119-0.104-0.195-0.104h-3.274c-0.106,0-0.201,0.072-0.232,0.178c0,0-0.817,3.836-1.224,4.867
				s-1.437,1.965-2.04,2.336c-0.306,0.188-0.621,0.305-0.966,0.355c-0.348,0.053-0.711,0.078-1.08,0.078h-3.19v-7.564
				c0-0.137-0.108-0.25-0.243-0.25h-3.272c-0.135,0-0.243,0.113-0.243,0.25v20.339c0,0.139,0.108,0.25,0.243,0.25h3.272
				c0.135,0,0.243-0.111,0.243-0.25v-9.526h3.626c0.608,0,4.13,0.445,4.442,2.977s0.712,6.618,0.712,6.618
				c0.029,0.107,0.125,0.182,0.233,0.182h3.352c0.077,0,0.149-0.037,0.196-0.102c0.045-0.062,0.06-0.145,0.037-0.221
				c0,0-0.612-4.479-1.112-7.604S256.081,45.725,256.142,45.75z M280.034,36.809h-2.762c-0.079,0-0.153,0.039-0.198,0.105
				l-7.368,10.664l-2.516,3.773V37.059c0-0.137-0.109-0.25-0.243-0.25h-3.272c-0.134,0-0.243,0.113-0.243,0.25v20.339
				c0,0.139,0.109,0.25,0.243,0.25h3.149c0.08,0,0.155-0.039,0.201-0.107l9.415-13.978v13.835c0,0.139,0.109,0.25,0.243,0.25h3.351
				c0.134,0,0.243-0.111,0.243-0.25V37.059C280.277,36.922,280.168,36.809,280.034,36.809z M219.187,36.809h-3.272
				c-0.135,0-0.243,0.113-0.243,0.25v7.482h-8.691v-7.482c0-0.137-0.108-0.25-0.243-0.25h-3.273c-0.135,0-0.243,0.113-0.243,0.25
				v20.339c0,0.139,0.108,0.25,0.243,0.25h3.273c0.135,0,0.243-0.111,0.243-0.25v-9.649h8.691v9.649c0,0.139,0.108,0.25,0.243,0.25
				h3.272c0.134,0,0.243-0.111,0.243-0.25V37.059C219.43,36.922,219.32,36.809,219.187,36.809z M181.38,52.186
				c-0.046-0.053-0.111-0.082-0.18-0.082c-0.092-0.018-0.134,0.031-0.181,0.082c-0.46,0.525-1.051,0.998-1.756,1.404
				c-0.697,0.402-1.456,0.605-2.258,0.605c-1.78,0-3.174-0.572-4.143-1.701c-0.978-1.133-1.474-2.891-1.474-5.227
				c0-2.361,0.495-4.127,1.474-5.246c0.968-1.115,2.361-1.68,4.143-1.68c0.736,0,1.466,0.18,2.171,0.531
				c0.711,0.35,1.33,0.832,1.841,1.434c0.046,0.055,0.136,0.09,0.183,0.086c0.07,0,0.137-0.029,0.183-0.084l2.113-2.461
				c0.086-0.1,0.081-0.252-0.013-0.346c-0.869-0.861-1.856-1.568-2.938-2.096c-1.097-0.533-2.34-0.805-3.694-0.805
				c-1.166,0-2.314,0.199-3.412,0.588c-1.107,0.395-2.104,1.027-2.962,1.883c-0.859,0.855-1.557,1.967-2.072,3.305
				c-0.516,1.336-0.777,2.982-0.777,4.891c0,1.883,0.262,3.514,0.777,4.848c0.516,1.342,1.213,2.456,2.072,3.31
				c0.858,0.857,1.854,1.49,2.962,1.881c1.098,0.391,2.246,0.588,3.412,0.588c1.386,0,2.642-0.27,3.734-0.803
				c1.082-0.529,2.071-1.25,2.939-2.141c0.093-0.094,0.096-0.246,0.008-0.346L181.38,52.186z M164.965,43.412
				c0-1.314-0.224-2.43-0.665-3.311c-0.44-0.881-1.05-1.59-1.812-2.102c-0.745-0.508-1.631-0.871-2.631-1.086
				c-0.984-0.207-2.024-0.312-3.09-0.312c-1.373,0-2.674,0.232-3.869,0.691c-1.204,0.469-2.201,1.162-2.963,2.061
				c-0.082,0.098-0.079,0.242,0.007,0.336l2.075,2.254c0.047,0.053,0.109,0.076,0.183,0.078c0.069-0.002,0.134-0.033,0.179-0.088
				c0.429-0.516,0.989-0.926,1.667-1.221c0.685-0.301,1.646-0.453,2.856-0.453c1.535,0,2.653,0.26,3.326,0.771
				c0.658,0.5,0.979,1.252,0.979,2.301v1.047h-5.979c-1.095,0-2.059,0.172-2.864,0.51c-0.814,0.338-1.501,0.799-2.041,1.369
				s-0.953,1.24-1.23,1.992c-0.275,0.744-0.415,2.039-0.415,2.863c0,1.818,0.637,3.835,1.894,5.013
				c1.25,1.174,3.058,1.768,5.372,1.768c1.379,0,2.577-0.199,3.558-0.59c0.721-0.287,1.291-0.643,1.704-1.059l0.416,1.152
				c0,0.139,0.109,0.25,0.243,0.25h3.275c0.134,0,0.243-0.111,0.243-0.25c0,0-0.417-1.371-0.417-3.255
				C164.965,50.01,164.965,43.412,164.965,43.412z M161.204,50.793c0,0.717-0.135,1.301-0.4,1.734
				c-0.271,0.441-0.633,0.801-1.076,1.066c-0.452,0.271-0.975,0.461-1.553,0.562c-0.612,0.109-1.212,0.161-1.833,0.161
				c-1.399,0-2.443-0.272-3.102-0.806c-0.647-0.529-0.962-1.717-0.962-2.604c0-0.879,0.305-2.037,0.934-2.51
				c0.647-0.486,1.592-0.732,2.811-0.732h5.182V50.793z M198.575,52.186c-0.046-0.053-0.111-0.082-0.179-0.082
				c-0.044-0.012-0.136,0.031-0.182,0.084c-0.447,0.516-1.037,0.986-1.753,1.402c-0.695,0.402-1.455,0.605-2.257,0.605
				c-1.777,0-3.173-0.572-4.146-1.701c-0.979-1.139-1.476-2.896-1.476-5.227c0-2.355,0.496-4.121,1.475-5.246
				c0.973-1.113,2.368-1.68,4.146-1.68c0.735,0,1.464,0.18,2.17,0.531c0.709,0.348,1.327,0.83,1.837,1.434
				c0.046,0.055,0.113,0.086,0.184,0.086h0.001c0.069,0,0.136-0.029,0.182-0.084l2.116-2.461c0.086-0.1,0.081-0.252-0.013-0.346
				c-0.868-0.861-1.855-1.566-2.938-2.096c-1.1-0.533-2.343-0.805-3.695-0.805c-1.167,0-2.314,0.199-3.413,0.588
				c-1.105,0.395-2.102,1.027-2.961,1.883c-0.861,0.855-1.559,1.967-2.071,3.305c-0.517,1.342-0.778,2.988-0.778,4.891
				c0,1.877,0.262,3.508,0.778,4.848c0.513,1.342,1.21,2.456,2.07,3.31c0.86,0.857,1.857,1.49,2.962,1.881
				c1.099,0.391,2.246,0.588,3.413,0.588c1.386,0,2.642-0.27,3.733-0.803c1.085-0.529,2.074-1.25,2.941-2.141
				c0.093-0.096,0.096-0.248,0.008-0.346L198.575,52.186z M121.141,45.75c0.849-0.451,2.419-1.867,2.951-3.711
				s1.264-4.904,1.264-4.904c0.024-0.076,0.01-0.16-0.036-0.223c-0.046-0.064-0.119-0.104-0.196-0.104h-3.273
				c-0.106,0-0.202,0.072-0.233,0.178c0,0-0.817,3.836-1.224,4.867s-1.436,1.965-2.041,2.336c-0.305,0.188-0.621,0.305-0.965,0.355
				c-0.348,0.053-0.712,0.078-1.081,0.078h-3.19v-7.564c0-0.137-0.108-0.25-0.243-0.25h-3.272c-0.135,0-0.243,0.113-0.243,0.25
				v20.339c0,0.139,0.108,0.25,0.243,0.25h3.272c0.135,0,0.243-0.111,0.243-0.25v-9.526h3.626c0.609,0,4.13,0.445,4.442,2.977
				s0.712,6.618,0.712,6.618c0.029,0.107,0.125,0.182,0.234,0.182h3.352c0.077,0,0.149-0.037,0.196-0.102
				c0.045-0.062,0.06-0.145,0.037-0.221c0,0-0.611-4.479-1.111-7.604S121.081,45.725,121.141,45.75z"/>
		</g>
	</g>
</g>
</svg>
